<?xml version="1.0" standalone="no"?>
<!DOCTYPE svg PUBLIC "-//W3C//DTD SVG 1.1//EN" "http://www.w3.org/Graphics/SVG/1.1/DTD/svg11.dtd">
<svg width="100%" height="100%" viewBox="0 0 640 480" version="1.1" xmlns="http://www.w3.org/2000/svg" xmlns:xlink="http://www.w3.org/1999/xlink" xml:space="preserve" style="fill-rule:evenodd;clip-rule:evenodd;stroke-linejoin:round;stroke-miterlimit:1.41421;">
    <g id="Cloudname" transform="matrix(3.05843,0,0,3.04065,-132.128,-443.183)">
        <g id="text" transform="matrix(1,0,0,1,15.7292,8.74913)">
            <g id="Clöud">
                <g transform="matrix(1,0,0,1,-43.9783,52.9952)">
                    <path d="M128.053,153.184L127.303,167.122C124.407,168.289 121.813,168.872 119.522,168.872C114.126,168.872 109.584,166.893 105.897,162.934C101.772,158.497 99.709,152.216 99.709,144.091C99.709,136.487 101.647,130.382 105.522,125.778C109.397,121.195 114.574,118.903 121.053,118.903C123.157,118.903 125.303,119.299 127.49,120.091L127.49,133.872C125.553,131.934 123.563,130.966 121.522,130.966C118.855,130.966 116.772,132.101 115.272,134.372C113.772,136.664 113.022,139.83 113.022,143.872C113.022,145.83 113.209,147.58 113.584,149.122C113.959,150.664 114.496,151.966 115.194,153.028C115.892,154.091 116.751,154.903 117.772,155.466C118.793,156.028 119.959,156.309 121.272,156.309C123.522,156.309 125.782,155.268 128.053,153.184Z" style="fill:rgb(0,179,241);fill-rule:nonzero;"/>
                    <rect x="132.678" y="115.247" width="12.531" height="52.781" style="fill:rgb(0,179,241);fill-rule:nonzero;"/>
                    <path d="M181.459,151.653C181.459,156.862 180.022,161.007 177.147,164.091C174.272,167.174 170.418,168.716 165.584,168.716C160.834,168.716 157.053,167.143 154.24,163.997C151.449,160.83 150.053,156.58 150.053,151.247C150.053,145.914 151.48,141.632 154.334,138.403C157.168,135.153 160.928,133.528 165.615,133.528C170.553,133.528 174.428,135.143 177.24,138.372C180.053,141.601 181.459,146.028 181.459,151.653ZM169.303,151.247C169.303,149.997 169.22,148.867 169.053,147.856C168.886,146.846 168.647,145.981 168.334,145.263C168.022,144.544 167.647,143.987 167.209,143.591C166.772,143.195 166.282,142.997 165.74,142.997C164.678,142.997 163.824,143.747 163.178,145.247C162.532,146.559 162.209,148.528 162.209,151.153C162.209,153.737 162.532,155.705 163.178,157.059C163.824,158.559 164.688,159.309 165.772,159.309C166.793,159.309 167.636,158.57 168.303,157.091C168.97,155.445 169.303,153.497 169.303,151.247Z" style="fill:rgb(0,179,241);fill-rule:nonzero;"/>
                    <path d="M186.303,134.247L198.834,134.247L198.834,153.278C198.834,155.091 199.011,156.414 199.365,157.247C199.74,157.934 200.449,158.278 201.49,158.278C202.511,158.278 203.199,157.934 203.553,157.247C203.928,156.559 204.115,155.237 204.115,153.278L204.115,134.247L216.647,134.247L216.647,154.966C216.647,156.341 216.537,157.586 216.319,158.7C216.1,159.815 215.756,160.825 215.287,161.731C214.819,162.638 214.214,163.466 213.475,164.216C212.735,164.966 211.855,165.653 210.834,166.278C208.084,167.903 204.97,168.716 201.49,168.716C197.97,168.716 194.855,167.903 192.147,166.278C191.105,165.653 190.214,164.971 189.475,164.231C188.735,163.492 188.131,162.664 187.662,161.747C187.194,160.83 186.85,159.815 186.631,158.7C186.412,157.586 186.303,156.341 186.303,154.966L186.303,134.247Z" style="fill:rgb(0,179,241);fill-rule:nonzero;"/>
                    <path d="M239.803,168.028C239.824,167.674 239.845,167.268 239.865,166.809C239.886,166.351 239.918,165.82 239.959,165.216C240.001,164.841 240.032,164.268 240.053,163.497C238.845,165.455 237.668,166.82 236.522,167.591C235.397,168.341 234.011,168.716 232.365,168.716C228.97,168.716 226.303,167.195 224.365,164.153C222.449,161.112 221.49,156.882 221.49,151.466C221.49,145.778 222.428,141.372 224.303,138.247C226.178,135.101 228.824,133.528 232.24,133.528C234.115,133.528 235.626,133.945 236.772,134.778C237.98,135.612 239.147,137.059 240.272,139.122C240.209,138.039 240.178,137.382 240.178,137.153L240.053,133.747L240.053,115.247L252.615,115.247L252.615,168.028L239.803,168.028ZM234.459,150.997C234.459,155.622 235.49,157.934 237.553,157.934C239.49,157.934 240.459,155.549 240.459,150.778C240.459,146.216 239.522,143.934 237.647,143.934C235.522,143.934 234.459,146.289 234.459,150.997Z" style="fill:rgb(0,179,241);fill-rule:nonzero;"/>
                </g>
                <g transform="matrix(1,0,0,1,-153.044,-120.361)">
                    <circle cx="300.339" cy="296.036" r="7.111" style="fill:rgb(255,165,0);"/>
                </g>
                <g transform="matrix(1,0,0,1,-133.202,-120.361)">
                    <circle cx="300.339" cy="296.036" r="7.111" style="fill:rgb(255,165,0);"/>
                </g>
            </g>
            <g id="name" transform="matrix(-0.994582,5.63484e-16,-5.66554e-16,-1,309.115,392.231)">
                <path d="M130.178,168.028L117.647,168.028L117.647,150.153C117.647,148.612 117.496,147.539 117.194,146.934C116.892,146.33 116.365,146.028 115.615,146.028C113.865,146.028 112.99,147.684 112.99,150.997L112.99,168.028L100.459,168.028L100.459,134.247L112.99,134.247C112.97,135.08 112.949,135.851 112.928,136.559C112.907,137.268 112.876,137.924 112.834,138.528L112.709,140.684C114.73,135.914 117.688,133.528 121.584,133.528C124.293,133.528 126.397,134.539 127.897,136.559C129.418,138.58 130.178,141.393 130.178,144.997L130.178,168.028Z" style="fill:rgb(255,166,1);fill-rule:nonzero;"/>
                <path d="M166.115,168.028L153.553,168.028C153.657,166.903 153.74,165.83 153.803,164.809C153.865,163.789 153.928,162.966 153.99,162.341C151.824,166.591 148.918,168.716 145.272,168.716C142.105,168.716 139.595,167.132 137.74,163.966C135.907,160.82 134.99,156.466 134.99,150.903C134.99,145.528 135.938,141.299 137.834,138.216C139.73,135.091 142.313,133.528 145.584,133.528C148.938,133.528 151.647,135.549 153.709,139.591C153.668,139.174 153.636,138.809 153.615,138.497C153.595,138.184 153.574,137.924 153.553,137.716L153.428,135.747L153.334,134.247L166.115,134.247L166.115,168.028ZM153.428,150.716C153.428,149.466 153.381,148.403 153.287,147.528C153.194,146.653 153.043,145.94 152.834,145.388C152.626,144.836 152.355,144.44 152.022,144.2C151.688,143.961 151.282,143.841 150.803,143.841C148.678,143.841 147.615,146.664 147.615,152.309C147.615,156.351 148.563,158.372 150.459,158.372C152.438,158.372 153.428,155.82 153.428,150.716Z" style="fill:rgb(255,166,1);fill-rule:nonzero;"/>
                <path d="M219.178,168.028L206.647,168.028L206.647,148.903C206.647,146.757 206.011,145.684 204.74,145.684C202.845,145.684 201.897,147.434 201.897,150.934L201.897,168.028L189.365,168.028L189.365,149.372C189.365,147.08 188.657,145.934 187.24,145.934C186.22,145.934 185.496,146.325 185.069,147.106C184.642,147.888 184.428,149.257 184.428,151.216L184.428,168.028L171.897,168.028L171.897,134.247L184.428,134.247L184.428,135.997C184.428,137.372 184.365,138.664 184.24,139.872C186.47,135.643 189.376,133.528 192.959,133.528C196.98,133.528 199.959,135.862 201.897,140.528C203.584,135.862 206.376,133.528 210.272,133.528C213.209,133.528 215.501,134.601 217.147,136.747C218.501,138.539 219.178,141.237 219.178,144.841L219.178,168.028Z" style="fill:rgb(255,166,1);fill-rule:nonzero;"/>
                <path d="M242.272,156.591L254.522,156.841C253.647,160.778 251.944,163.742 249.412,165.731C246.881,167.721 243.574,168.716 239.49,168.716C234.657,168.716 230.865,167.216 228.115,164.216C225.386,161.174 224.022,157.018 224.022,151.747C224.022,146.393 225.49,142.028 228.428,138.653C231.365,135.257 235.157,133.559 239.803,133.559C244.428,133.559 248.115,135.195 250.865,138.466C253.615,141.757 254.99,146.122 254.99,151.559L254.928,153.778L236.553,153.778C236.699,157.237 237.678,158.966 239.49,158.966C240.907,158.966 241.834,158.174 242.272,156.591ZM242.553,147.028C242.553,146.403 242.48,145.83 242.334,145.309C242.188,144.789 241.985,144.341 241.725,143.966C241.464,143.591 241.157,143.294 240.803,143.075C240.449,142.856 240.063,142.747 239.647,142.747C238.772,142.747 238.063,143.148 237.522,143.95C236.98,144.752 236.709,145.778 236.709,147.028L242.553,147.028Z" style="fill:rgb(255,166,1);fill-rule:nonzero;"/>
            </g>
        </g>
        <g id="frame" transform="matrix(1.14204,0,0,1.20424,-2.59566,-35.2743)">
            <path d="M220.627,272.037L42.807,272.037L42.807,155.642L220.627,155.642L220.627,272.037ZM52.255,263.025L211.179,263.025L211.179,164.654L52.255,164.654L52.255,263.025Z" style="fill:rgb(0,179,241);"/>
        </g>
    </g>
</svg>
